<svg width="1169" height="448" viewBox="0 0 1169 448" fill="none" xmlns="http://www.w3.org/2000/svg">
<g filter="url(#filter0_i_656_21)">
<path d="M1106.43 11.9954L1092 12.8359L1156.32 68.5839L1154.47 53.0191C1153.66 46.1607 1150.34 39.8443 1145.16 35.2835L1126.55 18.9219C1121.02 14.0558 1113.79 11.5671 1106.43 11.9954Z" fill="#6625D6" fill-opacity="0.38"/>
</g>
<path d="M1114.88 33.3867L1114.92 33.4177L1159.38 71.9291C1164.54 76.3928 1167.5 82.875 1167.5 89.6934V423C1167.5 435.979 1156.98 446.5 1144 446.5H38.9095C33.2202 446.5 27.724 444.436 23.441 440.691L14.7852 433.123L8.88498 427.564C4.17193 423.123 1.5 416.935 1.5 410.46V25C1.5 12.0213 12.0213 1.5 25 1.5H1067.24C1072.63 1.5 1077.86 3.35379 1082.05 6.75048L1114.88 33.3867Z" fill="url(#paint0_linear_656_21)" fill-opacity="0.05" stroke="#6625D6" stroke-width="3"/>
<defs>
<filter id="filter0_i_656_21" x="1092" y="11.9482" width="64.3152" height="58.6357" filterUnits="userSpaceOnUse" color-interpolation-filters="sRGB">
<feFlood flood-opacity="0" result="BackgroundImageFix"/>
<feBlend mode="normal" in="SourceGraphic" in2="BackgroundImageFix" result="shape"/>
<feColorMatrix in="SourceAlpha" type="matrix" values="0 0 0 0 0 0 0 0 0 0 0 0 0 0 0 0 0 0 127 0" result="hardAlpha"/>
<feOffset dy="2"/>
<feGaussianBlur stdDeviation="2"/>
<feComposite in2="hardAlpha" operator="arithmetic" k2="-1" k3="1"/>
<feColorMatrix type="matrix" values="0 0 0 0 0.4 0 0 0 0 0.145098 0 0 0 0 0.839216 0 0 0 0.85 0"/>
<feBlend mode="normal" in2="shape" result="effect1_innerShadow_656_21"/>
</filter>
<linearGradient id="paint0_linear_656_21" x1="751.5" y1="256.5" x2="50.4999" y2="353.5" gradientUnits="userSpaceOnUse">
<stop stop-color="#C4C4C4"/>
<stop offset="1" stop-color="#C4C4C4" stop-opacity="0"/>
</linearGradient>
</defs>
</svg>
